<svg id="Laag_1" data-name="Laag 1" xmlns="http://www.w3.org/2000/svg" viewBox="0 0 512 512"><defs><style>.cls-1{fill:#ff7735;}</style></defs><path class="cls-1" d="M322.27,88.54q-8.91,24-16.79,48.64a544.62,544.62,0,0,0-13.82,52.76q-6,28.08-9.52,60.62a692,692,0,0,0-3.71,72.1q-1.79,1.15-5.28,3.1c-2.33,1.3-4.9,2.7-7.73,4.19s-5.77,3-8.84,4.55-6,3-8.84,4.47l-7.66,3.9q-3.42,1.72-5.2,2.6.15-10.83,1.49-23.82T240,294.3q2.3-14.37,5.35-29.81T252,233.31a202,202,0,0,1-20.43,23.31,189.13,189.13,0,0,1-17.32,14.94,113.93,113.93,0,0,1-16.35,10.54q-3.12,1.72-7.58.29a36.67,36.67,0,0,1-8.84-4.33,57.55,57.55,0,0,1-8-6.35,34.52,34.52,0,0,1-5.13-5.78q-1.48-2.3-3.19-13.13t-2.45-31q-6.41,8.08-13.83,17t-15.08,17.82q-7.67,8.88-15.09,17.18T104.75,289q-6.47,6.85-11.59,11.83a102.77,102.77,0,0,1-8,7.15q-1.48-1.59-3.64-3.61c-1.44-1.35-2.92-2.77-4.46-4.26s-3-3-4.53-4.47-2.78-2.92-3.87-4.26q21.71-18.48,44-52.18T155.21,158q2.23,1.88,4.17,3.61t3.71,3.46q1.18-22.8,3.64-50.59t7.06-61.71a19.68,19.68,0,0,1,3.5,2.74q2.75,2.46,6.46,6.14t7.88,7.94l8,8.15q3.79,3.9,6.61,6.93c1.89,2,3.17,3.42,3.87,4.19q-.3,1.15-1.34,6.2t-2.45,13q-1.41,8-3.05,18.19t-3,21.72q-1.33,11.48-2.3,23.68t-1.12,23.89q-.15,4.91-.22,11.33t-.08,13.2q0,6.79.23,13.36t.67,11.83a57.85,57.85,0,0,0,1.26,8.66c.54,2.26,1.26,3.49,2.15,3.68q1.64.44,7.88-4.18a132.51,132.51,0,0,0,15-13.57q8.78-9,19.1-21.73a260.94,260.94,0,0,0,20-28.65q4.46-16.89,9-32.62t8.77-29.15q4.25-13.43,7.95-24t6.69-17.39l6.77.36c2.52.14,5.07.34,7.65.58s5,.48,7.21.72S320.89,88.35,322.27,88.54Z"/><path class="cls-1" d="M430.6,234.25a299.93,299.93,0,0,1-19.15,23.52q-11,12.24-23.78,24.83t-26.83,25.18q-14,12.6-28.24,24.47t-28,22.79Q290.78,366,278.42,375.17T255.61,391.6q-10.44,7.23-17.74,11.72,8.81-.29,20.42-.51t24.45-.5q12.81-.3,25.86-.8t24.59-1.37q11.55-.87,20.8-2.18a63.5,63.5,0,0,0,14.31-3.33q-3.74,4.64-8.2,10.72t-9.17,12.59q-4.69,6.51-9.31,12.74t-8.5,10.86q-7-.44-18.63-1.38T289.07,438q-13.79-1.23-28.32-2.75t-27.35-3.11a100.58,100.58,0,0,1-7.3-7.89q-3.43-4.12-6.49-8.18T214,408.39c-1.74-2.41-3.3-4.59-4.7-6.52q18.5-15.76,39.13-33.58T290.94,330q21.9-20.47,44.56-44.22t45.17-51.53q-10.14,2.17-20.8,3.69t-21.31,2.53q-10.67,1-21,1.67t-19.75,1.08q-3.42-3-9.09-8.39t-11.55-11.29q-5.89-5.94-11.33-11.66a123,123,0,0,1-8.42-9.62c2.18.38,5.12.82,8.79,1.3s8.25.94,13.72,1.37,11.94.8,19.45,1.09,16.22.44,26.16.44q16.55,0,28.47-.29t20.27-.8q8.34-.51,13.56-1t8.35-1c2.09-.33,3.63-.6,4.62-.79a13.05,13.05,0,0,1,2.53-.29,35.05,35.05,0,0,1,4.85,4.27c1.84,1.88,3.72,4,5.66,6.22s3.85,4.63,5.74,7.09,3.63,4.71,5.22,6.74,2.9,3.76,3.95,5.21S430.4,234.06,430.6,234.25Z"/></svg>