<svg id="Laag_1" data-name="Laag 1" xmlns="http://www.w3.org/2000/svg" viewBox="0 0 1837.01 693.94"><defs><style>.cls-1{fill:#ff7735;}</style></defs><path class="cls-1" d="M503.13,145.68q-16.47,44.22-31,89.75a1001.56,1001.56,0,0,0-25.52,97.33q-11,51.8-17.56,111.85t-6.86,133q-3.3,2.13-9.74,5.73t-14.27,7.72q-7.83,4.13-16.33,8.39t-16.33,8.25q-7.81,4-14.13,7.19t-9.6,4.8q.27-20,2.74-43.94t6.72-50.47q4.26-26.49,9.88-55t12.21-57.52q-19.75,25.83-37.73,43a347.07,347.07,0,0,1-32,27.57,209.85,209.85,0,0,1-30.18,19.44q-5.76,3.19-14,.53a67.31,67.31,0,0,1-16.33-8,105.73,105.73,0,0,1-14.82-11.72A64.06,64.06,0,0,1,218.84,473q-2.75-4.26-5.9-24.23t-4.52-57.26q-11.8,14.92-25.52,31.43T155,455.79q-14.13,16.38-27.85,31.7t-25.66,28Q89.6,528.1,80.13,537.28a185.05,185.05,0,0,1-14.68,13.19q-2.75-2.94-6.72-6.66T50.5,536q-4.26-4.12-8.37-8.25A104.57,104.57,0,0,1,35,519.84q40.07-34.08,81.23-96.27T194.7,273.78q4.11,3.47,7.68,6.65t6.86,6.4q2.19-42.08,6.72-93.34T229,79.64c.91.36,3.06,2,6.44,5.06s7.37,6.79,11.94,11.32,9.42,9.41,14.54,14.64l14.69,15q7,7.19,12.21,12.78t7.13,7.73q-.56,2.13-2.47,11.45t-4.53,24q-2.61,14.66-5.62,33.56t-5.49,40.08q-2.47,21.16-4.25,43.67T271.53,343q-.28,9-.41,20.9T271,388.29q0,12.51.41,24.63t1.24,21.84a109.23,109.23,0,0,0,2.33,16q1.5,6.25,4,6.79,3,.8,14.54-7.73t27.72-25q16.19-16.5,35.26-40.08a486,486,0,0,0,36.91-52.86q8.22-31.15,16.6-60.18t16.19-53.8q7.81-24.76,14.68-44.34t12.35-32.09c3.65.18,7.82.4,12.48.67s9.37.62,14.13,1.06,9.2.89,13.31,1.34S500.56,145.33,503.13,145.68Z" transform="translate(-34.99 -79.64)"/><path class="cls-1" d="M508,535.85q-4,0-10.26-2.75a66.57,66.57,0,0,1-11.89-6.81,49.88,49.88,0,0,1-9.72-9q-4-5-4.05-9.7,2.7-11.54,7.29-26.47t9.86-30.41q5.26-15.46,11.07-30.27t10.53-26.34q4.73-11.54,8.24-18.61t4.59-7.08q1.62,0,8.1,3.41A142.74,142.74,0,0,1,545.39,380a100.81,100.81,0,0,1,12.83,10.22q5.67,5.37,5.67,9.3a9.14,9.14,0,0,1-.27,2c-.18.78-.45,1.79-.81,3q-2.16,6.56-5.53,15.47t-7.16,18.47q-3.78,9.58-7.56,19.14t-6.75,17.95q-3,8.4-4.87,14.68a36.34,36.34,0,0,0-1.89,9.17,1.42,1.42,0,0,0,1.62,1.58q3,0,8.92-3.41t13.64-8.91q7.69-5.51,16.06-12.06t16.07-13q7.71-6.42,13.91-11.67t9.46-7.86q2.43,2.36,5.8,6t6.35,6.81q-5.94,5.78-14.86,14t-19.31,16.9q-10.4,8.66-21.6,17.3t-21.74,15.46a155.84,155.84,0,0,1-19.72,11Q514.47,535.85,508,535.85Zm107-247.42a50.41,50.41,0,0,1-2,5.11q-1.75,4.06-4.18,9.44t-5.54,11.27q-3.11,5.89-6.08,10.88a66.85,66.85,0,0,1-5.67,8.25q-2.7,3.28-4.32,3.28a40.33,40.33,0,0,1-11.75-2.88,127.63,127.63,0,0,1-13.23-5.9,93.63,93.63,0,0,1-10.81-6.42c-3-2.1-4.45-3.58-4.45-4.46q0-5.5,3.24-14.28a145.67,145.67,0,0,1,7.56-17,109.8,109.8,0,0,1,8.78-14.28q4.45-6,6.89-6c3.24,0,7.19,1,11.88,3a118.21,118.21,0,0,1,13.64,6.95,98.59,98.59,0,0,1,11.34,7.73Q614.93,286.85,614.94,288.43Z" transform="translate(-34.99 -79.64)"/><path class="cls-1" d="M682.46,394.85q-3.26,8.38-6.49,17t-6.48,17.82q17-18.87,29.3-30.79t20.8-18.74q8.5-6.81,13.77-9.31c3.52-1.66,6.26-2.49,8.24-2.49q3.51,0,10.53,3.41a105.56,105.56,0,0,1,14.18,8.39,92.69,92.69,0,0,1,12.43,10.22q5.26,5.25,5.26,9.17a9.14,9.14,0,0,1-.27,2c-.18.78-.45,1.79-.81,3q-2.16,6.56-5.53,15.47t-7.16,18.47q-3.78,9.58-7.56,19.14t-6.75,17.95q-3,8.4-4.87,14.68a36.34,36.34,0,0,0-1.89,9.17,1.42,1.42,0,0,0,1.62,1.58q3,0,8.92-3.41t13.63-8.91q7.71-5.51,16.07-12.06t16.07-13q7.69-6.42,13.91-11.67t9.45-7.86a65.78,65.78,0,0,1,5.95,6c2.16,2.45,4.22,4.72,6.21,6.81q-5.94,5.78-14.86,14t-19.31,16.9q-10.4,8.66-21.6,17.3t-21.74,15.46a155.84,155.84,0,0,1-19.72,11q-9.18,4.19-15.39,4.19-4.05,0-10.27-2.75a70.86,70.86,0,0,1-12-6.81,48,48,0,0,1-9.86-9q-4.05-5-4.05-9.7,2.43-10.76,6.61-24.38t9.05-27.91Q712.7,441,718,427t10.13-25.81l-.54.52q-5.13,6-14.72,15.86a331,331,0,0,0-21.74,25.16,407.19,407.19,0,0,0-25.66,36.95A401.39,401.39,0,0,0,639,530.88a43.67,43.67,0,0,1-3,5.76q-1.35,2.1-5.13,2.1a26.83,26.83,0,0,1-10.4-2.49,75.32,75.32,0,0,1-11.88-6.55q-6.08-4.08-12.15-9.05a132,132,0,0,1-10.94-10,72.29,72.29,0,0,1,1.48-8.91q1.5-7.33,4.19-18.48t6.75-25.42q4.05-14.28,9.18-30t11.21-32.11q6.08-16.38,13.1-31.58,11.34,5.25,25.25,12.84A149.33,149.33,0,0,1,682.46,394.85Z" transform="translate(-34.99 -79.64)"/><path class="cls-1" d="M1052.19,457Q1029,480,1005.6,499.29t-46.32,36Q955,547.39,950,559.84t-10.4,25A243.66,243.66,0,0,1,921.33,618a282.53,282.53,0,0,1-22,29.36,261.16,261.16,0,0,1-23.76,24.37,224,224,0,0,1-23.36,18.48A132.41,132.41,0,0,1,831.4,702q-9.58,4.19-16.34,4.19-4.59,0-10.8-3.93a60.69,60.69,0,0,1-11.75-9.83,66.49,66.49,0,0,1-9.45-12.84,27.1,27.1,0,0,1-3.92-13.24q0-13.64,9.59-26.73t26.47-27q16.88-13.89,39.56-29.22t49.16-33.16q5.93-14.94,13.36-35.51T935,464a219.57,219.57,0,0,1-22.68,25.82,235,235,0,0,1-26.74,22.67,158.1,158.1,0,0,1-27.41,16.12q-13.65,6.15-25,6.16-3,0-7.7-2.76a52,52,0,0,1-9.45-7.2,44,44,0,0,1-8.11-10.49,25.93,25.93,0,0,1-3.37-12.84q0-8.65,4.32-20.84a142.51,142.51,0,0,1,12.56-25.81,230.32,230.32,0,0,1,20-27.79,213.69,213.69,0,0,1,26.47-26.6A207.36,207.36,0,0,1,900,378.2a158,158,0,0,1,37.13-15.07c2,0,4.77.75,8.38,2.23s7.15,3.14,10.66,5a98.75,98.75,0,0,1,9.19,5.37c2.6,1.75,3.91,2.89,3.91,3.41a2.12,2.12,0,0,1-.81,1.31,2,2,0,0,1-.81.26q-6.21,3.68-15.93,10.22t-20.53,14.81q-10.8,8.26-21.6,17.69T890,442.15A120.06,120.06,0,0,0,875.83,460q-5.42,8.52-5.4,15.33a6.8,6.8,0,0,0,1.21,4.06,4.19,4.19,0,0,0,3.65,1.71q6.75,0,15.26-4.59A109.3,109.3,0,0,0,908,464.56a232.7,232.7,0,0,0,17.82-16.38q8.91-9,16.88-17.82T956.85,414q6.21-7.61,9.72-12.32a10,10,0,0,0,.95-1.05,5,5,0,0,1,1.21-1.05c1.44.36,3.38,2.1,5.81,5.25a94.86,94.86,0,0,1,7.16,10.87,120.1,120.1,0,0,1,6.07,12.19q2.57,6,2.57,8.65V437a10.59,10.59,0,0,1-.54,1.84q-3,9.18-7.56,25.68t-11.62,38q17.28-13.36,34.71-28.05t34.7-31.45ZM811,671.1q5.4,0,15.53-8A183.41,183.41,0,0,0,848,642.66a318.82,318.82,0,0,0,22.28-27.52,228.05,228.05,0,0,0,18.23-29.22Q871,598.24,856.38,609.11a242.94,242.94,0,0,0-25,21.1A104.29,104.29,0,0,0,815.2,650q-5.81,9.57-5.81,19Q809.39,671.1,811,671.1Z" transform="translate(-34.99 -79.64)"/><path class="cls-1" d="M1467.43,398.25a538,538,0,0,1-34.7,42.59q-19.86,22.16-43.08,45T1341,531.4q-25.39,22.8-51.18,44.29T1239.08,617q-25,19.8-47.39,36.44t-41.32,29.74q-18.91,13.11-32.14,21.23,15.93-.51,37-.91t44.29-.92q23.22-.52,46.86-1.44t44.56-2.49q20.93-1.57,37.67-3.93t25.93-6q-6.75,8.39-14.85,19.39t-16.61,22.81q-8.5,11.79-16.88,23.06t-15.4,19.66q-12.69-.8-33.76-2.49t-46-3.93q-25-2.24-51.32-5t-49.56-5.64a181.84,181.84,0,0,1-13.23-14.28q-6.21-7.47-11.75-14.81t-10.26-13.89l-8.51-11.8q33.5-28.56,70.9-60.8t77.1-69.33q39.7-37.08,80.75-80.07T1377,398.25q-18.37,3.93-37.68,6.69t-38.62,4.58q-19.31,1.85-38.08,3t-35.78,2q-6.22-5.5-16.48-15.2t-20.93-20.44q-10.67-10.75-20.52-21.1a219.05,219.05,0,0,1-15.26-17.43q5.92,1.05,15.93,2.36t24.85,2.49q14.85,1.17,35.24,2t47.4.79q30,0,51.58-.53t36.73-1.44q15.12-.91,24.58-1.83t15.12-1.84q5.67-.92,8.38-1.44a24.53,24.53,0,0,1,4.59-.52,63.56,63.56,0,0,1,8.77,7.73q5,5.12,10.27,11.27t10.4,12.84q5.11,6.69,9.45,12.19t7.15,9.44C1466,396.42,1467.07,397.9,1467.43,398.25Z" transform="translate(-34.99 -79.64)"/><path class="cls-1" d="M1555.74,695.21q4,0,10.81-3.41t15-8.65q8.24-5.24,16.88-11.66T1615,658.91q8-6.15,14.17-11.27t9.46-7.73q2.43,2.36,5.8,6c2.25,2.45,4.37,4.71,6.35,6.81q-5.94,5.78-14.85,13.76t-19.18,16.38q-10.26,8.4-21.34,16.51t-21.6,14.68a148,148,0,0,1-19.72,10.49q-9.18,3.93-15.39,3.93a36.15,36.15,0,0,1-12-2.49,77,77,0,0,1-13.23-6.29,52.82,52.82,0,0,1-10.81-8.39q-4.45-4.58-4.45-9a112.33,112.33,0,0,1,4.32-26.21q4.05-14.94,9.59-30.67T1524,614.35q6.35-15.33,11.75-27.39-2.16.54-8.37,5.77t-15,14.28q-8.79,9-19.18,21.76a310,310,0,0,0-20.52,28.44,369.15,369.15,0,0,0-19.31,33.94,244.43,244.43,0,0,0-15.4,38.4,8.65,8.65,0,0,1-2.29,4.19q-1.48,1.31-5,1.31-2.43,0-7.56-2.36t-10.81-5.63q-5.67-3.28-11.07-6.95a86.73,86.73,0,0,1-8.64-6.55,35.58,35.58,0,0,1-2.7-3.41,8.38,8.38,0,0,1-1.08-4.72q0-17.29,5.94-42.46a535.8,535.8,0,0,1,16.34-54.64q10.39-29.49,24.31-61.6t29.7-63q15.81-30.93,32.95-58.84a548.65,548.65,0,0,1,33.76-49.28q16.62-21.36,31.87-34.33t28-13.76a51.7,51.7,0,0,1,12.56,5.76,106.86,106.86,0,0,1,12,8.65q5.67,4.73,10.13,9.17a85.75,85.75,0,0,1,6.88,7.6,11.65,11.65,0,0,1,2.17,5,27,27,0,0,1,.54,4.19q0,9.43-5.41,23.33a249.79,249.79,0,0,1-15.12,31.19q-9.72,17.29-23.63,37.08T1561,500.08q-16.87,20.84-36.46,42.06t-40.92,41.15q-5.4,14.16-9.72,27.53a360.16,360.16,0,0,1,26.74-24.64,212.55,212.55,0,0,1,21.6-15.86,96.43,96.43,0,0,1,16.07-8.39q6.62-2.49,10.13-2.49,2.43,0,8.64,3a142.29,142.29,0,0,1,13,7.21,138.57,138.57,0,0,1,12.42,8.64q5.67,4.47,7,7.34a5.85,5.85,0,0,1,0,3.54,24.91,24.91,0,0,1-1.08,3.54q-2.43,7.08-5.8,16.38t-7.3,19.66q-3.91,10.35-7.69,20.84t-6.75,19.26q-3,8.79-4.87,15.46t-1.89,9.31A1.41,1.41,0,0,0,1555.74,695.21ZM1532,469.81q-6.48,13.37-12.56,26.6T1507.67,523q18.09-22.53,35.11-45.73t30.38-44.56a327.26,327.26,0,0,0,21.47-39.45q8.11-18.07,8.11-30.4c0-3.84-.73-5.77-2.16-5.77q-3.24,0-9.86,8.52a268.2,268.2,0,0,0-15.8,23.46q-9.18,14.94-20.12,35.64T1532,469.81Z" transform="translate(-34.99 -79.64)"/><path class="cls-1" d="M1778.55,694.16a1.42,1.42,0,0,0,1.62,1.58q3,0,9-3.41t13.91-8.65q7.83-5.23,16.48-11.8t16.47-12.71q7.83-6.15,14.18-11.4t9.59-7.86q2.43,2.36,5.8,6c2.25,2.45,4.37,4.71,6.35,6.81q-5.94,5.78-15,13.89t-19.72,16.91q-10.66,8.78-22.14,17.3t-22.28,15.2a169.62,169.62,0,0,1-20.26,10.87q-9.45,4.2-15.66,4.2a23.89,23.89,0,0,1-10.26-2.75,49,49,0,0,1-10.67-7.08,43.81,43.81,0,0,1-8.37-9.57,18.44,18.44,0,0,1-3.38-10q0-4.18,3.24-16t7.83-27.53a330.54,330.54,0,0,1-23.76,28.18q-11.62,12.2-21.34,20.84t-17,14q-7.31,5.37-10.81,7.73a17,17,0,0,1-5.13,2,25.68,25.68,0,0,1-5.4.65,26.28,26.28,0,0,1-11.34-3,54.67,54.67,0,0,1-11.48-7.47,47,47,0,0,1-8.91-10q-3.65-5.51-3.65-10.49,0-5.76,3.92-19.13t10.53-32q6.61-18.61,15.53-41.68t19.17-48.49c.36-.87.68-1.26.95-1.18a5.33,5.33,0,0,0,1.48.14,77.25,77.25,0,0,1,14.05,4.06q8.91,3.27,17.42,7.21t14.72,7.46q6.21,3.54,6.21,4.85-.81,1.85-4.19,8.65T1708.47,607q-4.46,9.59-9.45,20.71t-9.19,21.36q-4.18,10.23-6.88,18.48t-2.7,12.19a.94.94,0,0,0,1.08,1q2.16,0,9.45-5.64t18-17.69a379,379,0,0,0,24.17-31.06A458.58,458.58,0,0,0,1761,580.67l7.56-20.7a3.35,3.35,0,0,1,3.51-2.1q1.89,0,8.24,3.54t13.5,8.12a143.91,143.91,0,0,1,12.83,9.18q5.67,4.59,6.21,6.42a23.8,23.8,0,0,1-.27,2.75,13.53,13.53,0,0,1-.81,3.28q-2.7,7.08-6.21,16.64t-7.16,19.92q-3.64,10.37-7.15,20.84t-6.35,19.52q-2.84,9-4.59,16A47.06,47.06,0,0,0,1778.55,694.16Z" transform="translate(-34.99 -79.64)"/></svg>